<mxfile host="app.diagrams.net" modified="2021-06-10T01:51:17.439Z" agent="5.0 (Windows NT 10.0; Win64; x64) AppleWebKit/537.36 (KHTML, like Gecko) Chrome/91.0.4472.77 Safari/537.36" etag="-p-hQcus_tjNbZqLX2J5" version="14.7.6" type="github">
  <diagram id="he_E1FUDkKRQdLvhwdhS" name="Page-1">
    <mxGraphModel dx="1185" dy="662" grid="1" gridSize="10" guides="1" tooltips="1" connect="1" arrows="1" fold="1" page="1" pageScale="1" pageWidth="1169" pageHeight="827" math="0" shadow="0">
      <root>
        <mxCell id="0" />
        <mxCell id="1" parent="0" />
        <mxCell id="qKgviTFvNqmydnUkKyIK-1" value="Pessoa" style="text;strokeColor=none;fillColor=none;html=1;fontSize=24;fontStyle=1;verticalAlign=middle;align=center;" vertex="1" parent="1">
          <mxGeometry y="80" width="100" height="40" as="geometry" />
        </mxCell>
        <mxCell id="qKgviTFvNqmydnUkKyIK-2" value="&lt;ul style=&quot;font-size: 14px&quot;&gt;&lt;li&gt;&lt;b&gt;Id&lt;/b&gt;&lt;/li&gt;&lt;li&gt;Nome&lt;/li&gt;&lt;li&gt;&lt;b&gt;Habilitação (Chave Primaria)&lt;/b&gt;&lt;/li&gt;&lt;li&gt;Tel&lt;/li&gt;&lt;li&gt;Rua&lt;/li&gt;&lt;li&gt;Bairro&lt;/li&gt;&lt;li&gt;Número&lt;/li&gt;&lt;/ul&gt;" style="text;strokeColor=none;fillColor=none;html=1;whiteSpace=wrap;verticalAlign=middle;overflow=hidden;" vertex="1" parent="1">
          <mxGeometry x="80" y="50" width="160" height="210" as="geometry" />
        </mxCell>
        <mxCell id="qKgviTFvNqmydnUkKyIK-3" value="Carro" style="text;strokeColor=none;fillColor=none;html=1;fontSize=24;fontStyle=1;verticalAlign=middle;align=center;" vertex="1" parent="1">
          <mxGeometry x="260" y="80" width="100" height="40" as="geometry" />
        </mxCell>
        <mxCell id="qKgviTFvNqmydnUkKyIK-4" value="&lt;ul&gt;&lt;li&gt;&lt;b&gt;Id&lt;/b&gt;&lt;/li&gt;&lt;li&gt;Ano&lt;/li&gt;&lt;li&gt;Modelo&lt;/li&gt;&lt;li&gt;Licença&lt;/li&gt;&lt;li&gt;&lt;b&gt;IdPessoa&amp;nbsp; &amp;nbsp; &amp;nbsp; &amp;nbsp; &amp;nbsp; &amp;nbsp;(Chave Estrangeira)&lt;/b&gt;&lt;/li&gt;&lt;/ul&gt;" style="text;strokeColor=none;fillColor=none;html=1;whiteSpace=wrap;verticalAlign=middle;overflow=hidden;" vertex="1" parent="1">
          <mxGeometry x="340" y="70" width="160" height="110" as="geometry" />
        </mxCell>
        <mxCell id="qKgviTFvNqmydnUkKyIK-5" value="Acidente" style="text;strokeColor=none;fillColor=none;html=1;fontSize=24;fontStyle=1;verticalAlign=middle;align=center;" vertex="1" parent="1">
          <mxGeometry x="540" y="80" width="100" height="40" as="geometry" />
        </mxCell>
        <mxCell id="qKgviTFvNqmydnUkKyIK-6" value="&lt;ul&gt;&lt;li&gt;&lt;b&gt;Id&lt;/b&gt;&lt;/li&gt;&lt;li&gt;Data&lt;/li&gt;&lt;li&gt;Total Perdido&lt;/li&gt;&lt;li&gt;Motorista&lt;/li&gt;&lt;/ul&gt;" style="text;strokeColor=none;fillColor=none;html=1;whiteSpace=wrap;verticalAlign=middle;overflow=hidden;" vertex="1" parent="1">
          <mxGeometry x="630" y="60" width="130" height="110" as="geometry" />
        </mxCell>
        <mxCell id="qKgviTFvNqmydnUkKyIK-7" value="Ocorrência" style="text;strokeColor=none;fillColor=none;html=1;fontSize=24;fontStyle=1;verticalAlign=middle;align=center;" vertex="1" parent="1">
          <mxGeometry x="770" y="80" width="100" height="40" as="geometry" />
        </mxCell>
        <mxCell id="qKgviTFvNqmydnUkKyIK-8" value="&lt;ul&gt;&lt;li&gt;&lt;b&gt;Id&lt;/b&gt;&lt;/li&gt;&lt;li&gt;IdCarro&lt;/li&gt;&lt;li&gt;IdAcidente&lt;/li&gt;&lt;/ul&gt;" style="text;strokeColor=none;fillColor=none;html=1;whiteSpace=wrap;verticalAlign=middle;overflow=hidden;" vertex="1" parent="1">
          <mxGeometry x="860" y="60" width="130" height="110" as="geometry" />
        </mxCell>
        <mxCell id="qKgviTFvNqmydnUkKyIK-9" value="Pessoa" style="shape=table;startSize=30;container=1;collapsible=1;childLayout=tableLayout;fixedRows=1;rowLines=0;fontStyle=1;align=center;resizeLast=1;" vertex="1" parent="1">
          <mxGeometry x="220" y="300.32" width="180" height="160" as="geometry">
            <mxRectangle x="20" y="330" width="60" height="30" as="alternateBounds" />
          </mxGeometry>
        </mxCell>
        <mxCell id="qKgviTFvNqmydnUkKyIK-10" value="" style="shape=partialRectangle;collapsible=0;dropTarget=0;pointerEvents=0;fillColor=none;top=0;left=0;bottom=1;right=0;points=[[0,0.5],[1,0.5]];portConstraint=eastwest;" vertex="1" parent="qKgviTFvNqmydnUkKyIK-9">
          <mxGeometry y="30" width="180" height="30" as="geometry" />
        </mxCell>
        <mxCell id="qKgviTFvNqmydnUkKyIK-11" value="Id" style="shape=partialRectangle;connectable=0;fillColor=none;top=0;left=0;bottom=0;right=0;fontStyle=1;overflow=hidden;" vertex="1" parent="qKgviTFvNqmydnUkKyIK-10">
          <mxGeometry width="30" height="30" as="geometry" />
        </mxCell>
        <mxCell id="qKgviTFvNqmydnUkKyIK-12" value="Nome" style="shape=partialRectangle;connectable=0;fillColor=none;top=0;left=0;bottom=0;right=0;align=left;spacingLeft=6;fontStyle=5;overflow=hidden;" vertex="1" parent="qKgviTFvNqmydnUkKyIK-10">
          <mxGeometry x="30" width="150" height="30" as="geometry" />
        </mxCell>
        <mxCell id="qKgviTFvNqmydnUkKyIK-13" value="" style="shape=partialRectangle;collapsible=0;dropTarget=0;pointerEvents=0;fillColor=none;top=0;left=0;bottom=0;right=0;points=[[0,0.5],[1,0.5]];portConstraint=eastwest;" vertex="1" parent="qKgviTFvNqmydnUkKyIK-9">
          <mxGeometry y="60" width="180" height="30" as="geometry" />
        </mxCell>
        <mxCell id="qKgviTFvNqmydnUkKyIK-14" value="1" style="shape=partialRectangle;connectable=0;fillColor=none;top=0;left=0;bottom=0;right=0;editable=1;overflow=hidden;" vertex="1" parent="qKgviTFvNqmydnUkKyIK-13">
          <mxGeometry width="30" height="30" as="geometry" />
        </mxCell>
        <mxCell id="qKgviTFvNqmydnUkKyIK-15" value="Row 1" style="shape=partialRectangle;connectable=0;fillColor=none;top=0;left=0;bottom=0;right=0;align=left;spacingLeft=6;overflow=hidden;" vertex="1" parent="qKgviTFvNqmydnUkKyIK-13">
          <mxGeometry x="30" width="150" height="30" as="geometry" />
        </mxCell>
        <mxCell id="qKgviTFvNqmydnUkKyIK-16" value="" style="shape=partialRectangle;collapsible=0;dropTarget=0;pointerEvents=0;fillColor=none;top=0;left=0;bottom=0;right=0;points=[[0,0.5],[1,0.5]];portConstraint=eastwest;" vertex="1" parent="qKgviTFvNqmydnUkKyIK-9">
          <mxGeometry y="90" width="180" height="30" as="geometry" />
        </mxCell>
        <mxCell id="qKgviTFvNqmydnUkKyIK-17" value="2" style="shape=partialRectangle;connectable=0;fillColor=none;top=0;left=0;bottom=0;right=0;editable=1;overflow=hidden;" vertex="1" parent="qKgviTFvNqmydnUkKyIK-16">
          <mxGeometry width="30" height="30" as="geometry" />
        </mxCell>
        <mxCell id="qKgviTFvNqmydnUkKyIK-18" value="Row 2" style="shape=partialRectangle;connectable=0;fillColor=none;top=0;left=0;bottom=0;right=0;align=left;spacingLeft=6;overflow=hidden;" vertex="1" parent="qKgviTFvNqmydnUkKyIK-16">
          <mxGeometry x="30" width="150" height="30" as="geometry" />
        </mxCell>
        <mxCell id="qKgviTFvNqmydnUkKyIK-19" value="" style="shape=partialRectangle;collapsible=0;dropTarget=0;pointerEvents=0;fillColor=none;top=0;left=0;bottom=0;right=0;points=[[0,0.5],[1,0.5]];portConstraint=eastwest;" vertex="1" parent="qKgviTFvNqmydnUkKyIK-9">
          <mxGeometry y="120" width="180" height="30" as="geometry" />
        </mxCell>
        <mxCell id="qKgviTFvNqmydnUkKyIK-20" value="3" style="shape=partialRectangle;connectable=0;fillColor=none;top=0;left=0;bottom=0;right=0;editable=1;overflow=hidden;" vertex="1" parent="qKgviTFvNqmydnUkKyIK-19">
          <mxGeometry width="30" height="30" as="geometry" />
        </mxCell>
        <mxCell id="qKgviTFvNqmydnUkKyIK-21" value="Row 3" style="shape=partialRectangle;connectable=0;fillColor=none;top=0;left=0;bottom=0;right=0;align=left;spacingLeft=6;overflow=hidden;" vertex="1" parent="qKgviTFvNqmydnUkKyIK-19">
          <mxGeometry x="30" width="150" height="30" as="geometry" />
        </mxCell>
        <mxCell id="qKgviTFvNqmydnUkKyIK-22" value="Carro" style="shape=table;startSize=30;container=1;collapsible=1;childLayout=tableLayout;fixedRows=1;rowLines=0;fontStyle=1;align=center;resizeLast=1;" vertex="1" parent="1">
          <mxGeometry x="450" y="300.32" width="230" height="160" as="geometry">
            <mxRectangle x="20" y="330" width="60" height="30" as="alternateBounds" />
          </mxGeometry>
        </mxCell>
        <mxCell id="qKgviTFvNqmydnUkKyIK-23" value="" style="shape=partialRectangle;collapsible=0;dropTarget=0;pointerEvents=0;fillColor=none;top=0;left=0;bottom=1;right=0;points=[[0,0.5],[1,0.5]];portConstraint=eastwest;" vertex="1" parent="qKgviTFvNqmydnUkKyIK-22">
          <mxGeometry y="30" width="230" height="30" as="geometry" />
        </mxCell>
        <mxCell id="qKgviTFvNqmydnUkKyIK-24" value="Id" style="shape=partialRectangle;connectable=0;fillColor=none;top=0;left=0;bottom=0;right=0;fontStyle=1;overflow=hidden;" vertex="1" parent="qKgviTFvNqmydnUkKyIK-23">
          <mxGeometry width="30" height="30" as="geometry" />
        </mxCell>
        <mxCell id="qKgviTFvNqmydnUkKyIK-25" value="Modelo" style="shape=partialRectangle;connectable=0;fillColor=none;top=0;left=0;bottom=0;right=0;align=left;spacingLeft=6;fontStyle=5;overflow=hidden;" vertex="1" parent="qKgviTFvNqmydnUkKyIK-23">
          <mxGeometry x="30" width="200" height="30" as="geometry" />
        </mxCell>
        <mxCell id="qKgviTFvNqmydnUkKyIK-26" value="" style="shape=partialRectangle;collapsible=0;dropTarget=0;pointerEvents=0;fillColor=none;top=0;left=0;bottom=0;right=0;points=[[0,0.5],[1,0.5]];portConstraint=eastwest;" vertex="1" parent="qKgviTFvNqmydnUkKyIK-22">
          <mxGeometry y="60" width="230" height="30" as="geometry" />
        </mxCell>
        <mxCell id="qKgviTFvNqmydnUkKyIK-27" value="" style="shape=partialRectangle;connectable=0;fillColor=none;top=0;left=0;bottom=0;right=0;editable=1;overflow=hidden;" vertex="1" parent="qKgviTFvNqmydnUkKyIK-26">
          <mxGeometry width="30" height="30" as="geometry" />
        </mxCell>
        <mxCell id="qKgviTFvNqmydnUkKyIK-28" value="Row 1" style="shape=partialRectangle;connectable=0;fillColor=none;top=0;left=0;bottom=0;right=0;align=left;spacingLeft=6;overflow=hidden;" vertex="1" parent="qKgviTFvNqmydnUkKyIK-26">
          <mxGeometry x="30" width="200" height="30" as="geometry" />
        </mxCell>
        <mxCell id="qKgviTFvNqmydnUkKyIK-29" value="" style="shape=partialRectangle;collapsible=0;dropTarget=0;pointerEvents=0;fillColor=none;top=0;left=0;bottom=0;right=0;points=[[0,0.5],[1,0.5]];portConstraint=eastwest;" vertex="1" parent="qKgviTFvNqmydnUkKyIK-22">
          <mxGeometry y="90" width="230" height="30" as="geometry" />
        </mxCell>
        <mxCell id="qKgviTFvNqmydnUkKyIK-30" value="" style="shape=partialRectangle;connectable=0;fillColor=none;top=0;left=0;bottom=0;right=0;editable=1;overflow=hidden;" vertex="1" parent="qKgviTFvNqmydnUkKyIK-29">
          <mxGeometry width="30" height="30" as="geometry" />
        </mxCell>
        <mxCell id="qKgviTFvNqmydnUkKyIK-31" value="Row 2" style="shape=partialRectangle;connectable=0;fillColor=none;top=0;left=0;bottom=0;right=0;align=left;spacingLeft=6;overflow=hidden;" vertex="1" parent="qKgviTFvNqmydnUkKyIK-29">
          <mxGeometry x="30" width="200" height="30" as="geometry" />
        </mxCell>
        <mxCell id="qKgviTFvNqmydnUkKyIK-32" value="" style="shape=partialRectangle;collapsible=0;dropTarget=0;pointerEvents=0;fillColor=none;top=0;left=0;bottom=0;right=0;points=[[0,0.5],[1,0.5]];portConstraint=eastwest;" vertex="1" parent="qKgviTFvNqmydnUkKyIK-22">
          <mxGeometry y="120" width="230" height="30" as="geometry" />
        </mxCell>
        <mxCell id="qKgviTFvNqmydnUkKyIK-33" value="" style="shape=partialRectangle;connectable=0;fillColor=none;top=0;left=0;bottom=0;right=0;editable=1;overflow=hidden;" vertex="1" parent="qKgviTFvNqmydnUkKyIK-32">
          <mxGeometry width="30" height="30" as="geometry" />
        </mxCell>
        <mxCell id="qKgviTFvNqmydnUkKyIK-34" value="Row 3" style="shape=partialRectangle;connectable=0;fillColor=none;top=0;left=0;bottom=0;right=0;align=left;spacingLeft=6;overflow=hidden;" vertex="1" parent="qKgviTFvNqmydnUkKyIK-32">
          <mxGeometry x="30" width="200" height="30" as="geometry" />
        </mxCell>
        <mxCell id="qKgviTFvNqmydnUkKyIK-39" value="" style="endArrow=none;html=1;rounded=0;exitX=0.67;exitY=-0.002;exitDx=0;exitDy=0;exitPerimeter=0;" edge="1" parent="1" source="qKgviTFvNqmydnUkKyIK-22">
          <mxGeometry relative="1" as="geometry">
            <mxPoint x="550" y="270.32" as="sourcePoint" />
            <mxPoint x="604" y="460.32" as="targetPoint" />
            <Array as="points" />
          </mxGeometry>
        </mxCell>
        <mxCell id="qKgviTFvNqmydnUkKyIK-41" value="IdPessoa" style="text;strokeColor=none;fillColor=none;html=1;fontSize=15;fontStyle=1;verticalAlign=middle;align=center;" vertex="1" parent="1">
          <mxGeometry x="610" y="320.32" width="70" height="40" as="geometry" />
        </mxCell>
      </root>
    </mxGraphModel>
  </diagram>
</mxfile>
